<svg width="24" height="24" viewBox="0 0 24 24" fill="none" xmlns="http://www.w3.org/2000/svg">
<path d="M10.5719 16.8967L18.6536 8.81503L17.0487 7.21016L10.5719 13.687L7.30484 10.4199L5.69996 12.0248L10.5719 16.8967ZM12.1768 23.087C10.591 23.087 9.10078 22.7861 7.70606 22.1842C6.31135 21.5824 5.09814 20.7656 4.06643 19.7339C3.03472 18.7022 2.21795 17.489 1.61612 16.0943C1.01429 14.6996 0.713379 13.2093 0.713379 11.6236C0.713379 10.0378 1.01429 8.54755 1.61612 7.15284C2.21795 5.75812 3.03472 4.54491 4.06643 3.51321C5.09814 2.4815 6.31135 1.66473 7.70606 1.0629C9.10078 0.461071 10.591 0.160156 12.1768 0.160156C13.7626 0.160156 15.2528 0.461071 16.6475 1.0629C18.0422 1.66473 19.2555 2.4815 20.2872 3.51321C21.3189 4.54491 22.1356 5.75812 22.7375 7.15284C23.3393 8.54755 23.6402 10.0378 23.6402 11.6236C23.6402 13.2093 23.3393 14.6996 22.7375 16.0943C22.1356 17.489 21.3189 18.7022 20.2872 19.7339C19.2555 20.7656 18.0422 21.5824 16.6475 22.1842C15.2528 22.7861 13.7626 23.087 12.1768 23.087Z" fill="#FFD97F"/>
</svg>
