<svg width="35" height="36" viewBox="0 0 35 36" fill="none" xmlns="http://www.w3.org/2000/svg">
<g clip-path="url(#clip0_182_4169)">
<path d="M32.4159 0.223633H2.66822C1.24322 0.223633 0.0909424 1.34863 0.0909424 2.73954V32.61C0.0909424 34.0009 1.24322 35.1327 2.66822 35.1327H32.4159C33.8409 35.1327 35 34.0009 35 32.6168V2.73954C35 1.34863 33.8409 0.223633 32.4159 0.223633ZM10.4478 29.9714H5.26594V13.3077H10.4478V29.9714ZM7.85685 11.0373C6.19322 11.0373 4.85003 9.69409 4.85003 8.03727C4.85003 6.38045 6.19322 5.03727 7.85685 5.03727C9.51367 5.03727 10.8569 6.38045 10.8569 8.03727C10.8569 9.68727 9.51367 11.0373 7.85685 11.0373ZM29.8387 29.9714H24.6637V21.8714C24.6637 19.9418 24.6296 17.4532 21.9705 17.4532C19.2773 17.4532 18.8682 19.56 18.8682 21.735V29.9714H13.7V13.3077H18.6637V15.585H18.7319C19.4205 14.2759 21.1114 12.8918 23.6273 12.8918C28.8705 12.8918 29.8387 16.3418 29.8387 20.8282V29.9714Z" fill="#FFB401"/>
</g>
<defs>
<clipPath id="clip0_182_4169">
<rect width="34.9091" height="34.9091" fill="white" transform="translate(0.0909424 0.223633)"/>
</clipPath>
</defs>
</svg>
